<?xml version="1.0" encoding="UTF-8"?>
<!-- Generator: Adobe Illustrator 17.1.0, SVG Export Plug-In . SVG Version: 6.00 Build 0)  -->
<!DOCTYPE svg PUBLIC "-//W3C//DTD SVG 1.1//EN" "http://www.w3.org/Graphics/SVG/1.1/DTD/svg11.dtd">
<svg version="1.1" id="Layer_1" xmlns="http://www.w3.org/2000/svg" xmlns:xlink="http://www.w3.org/1999/xlink" x="0px" y="0px" width="349.3px" height="209.9px" viewBox="139.6 188.2 349.3 209.9" enable-background="new 139.6 188.2 349.3 209.9" xml:space="preserve">
<polygon fill="#8FC73E" points="445.3,241.7 417,281 402.2,282.2 348.2,360.3 379.3,360.4 413.5,309.6 438.1,307.7 477.7,261.7   468.7,241.7 "/>
<g>
	<g>
		<g>
			<path d="M279.1,360.3h3.9v-18.2h-3.9h-8.5v-82.3h8.5h3.9v-18.2h-3.9h-6h-1h-40.3v18.2v70.7c-8.8,6.2-16.9,9.3-24.3,9.3     c-5.5,0-6.8-1.2-8.8-3.6c-2.1-2.4-3.1-6.8-3.1-13.3v-81.3h-56v18.2h12.3v66.6c0,12.9,3.8,18.1,11.3,25.2     c7.5,7.1,17.9,10.6,31.1,10.6c13.5,0,24.4-4.3,37.5-13v11.1L279.1,360.3L279.1,360.3z"/>
			<path d="M355,342.2H342v-82.3h10.8l31.4,38.8l15.4-21.3l13.7-1.1l-27.3-34.6h-44v-16.8c0-12,10.5-18.4,20.7-18.4h5.8l0-18.3     h-17.1c-17.7,0-31,4.6-39.9,13.8c-8.9,9.2-10.8,25.9-10.8,39.6h-12.5v18.2h12.5v82.3h-12.5v18.2h53.8L355,342.2z"/>
			<polygon points="441.8,312.4 416.2,314.5 407.1,327.1 434,360.4 477.7,360.3 477.7,342.2 465.3,342.2    "/>
			<path d="M475.7,324.2c0.4,1.1,0.6,2.1,0.6,3.1c0,1.2-0.4,2.1-1.2,2.6c-0.8,0.6-1.9,0.9-3.4,0.9c-3.1,0-4.7-1.2-4.7-3.7     c0-0.4,0.1-0.8,0.2-1.3c0.1-0.5,0.2-0.9,0.4-1.3l-1.5-0.6c-0.2,0.3-0.3,0.8-0.4,1.4c-0.1,0.6-0.2,1.2-0.2,1.7     c0,1.8,0.5,3.2,1.6,4.1c1.1,1,2.7,1.5,4.7,1.5c2,0,3.5-0.5,4.5-1.4c1.1-1,1.6-2.3,1.6-4c0-1.2-0.2-2.2-0.6-3L475.7,324.2     L475.7,324.2z"/>
			<path d="M471.7,322c1.3,0,2.4-0.2,3.3-0.7c0.9-0.5,1.7-1.1,2.2-1.9c0.5-0.8,0.8-1.8,0.8-2.9c0-1.7-0.6-3.1-1.7-4.1     c-1.1-1-2.6-1.5-4.6-1.5c-1.9,0-3.4,0.5-4.5,1.5c-1.1,1-1.7,2.3-1.7,4c0,1.7,0.5,3.1,1.6,4.1C468.2,321.5,469.7,322,471.7,322z      M468.2,313.8c0.8-0.6,2-0.9,3.5-0.9c1.5,0,2.7,0.3,3.5,0.9c0.8,0.6,1.2,1.5,1.2,2.7c0,1.2-0.4,2.1-1.2,2.7     c-0.8,0.6-2,0.9-3.5,0.9c-1.6,0-2.7-0.3-3.5-0.9c-0.8-0.6-1.2-1.5-1.2-2.7C467,315.3,467.4,314.4,468.2,313.8z"/>
			<path d="M465.5,302.4c0,0.8,0.2,1.5,0.5,2.1c0.3,0.6,0.8,1.1,1.4,1.5v0.1l-1.6,0.3v1.5h12V306h-6.3c-1.6,0-2.7-0.3-3.4-0.8     c-0.7-0.5-1-1.4-1-2.5c0-0.9,0.2-1.5,0.7-1.9c0.5-0.4,1.2-0.6,2.2-0.6h7.8v-1.8H471c-1.4,0-2.4-0.3-3-0.8c-0.6-0.5-1-1.4-1-2.5     c0-0.9,0.2-1.5,0.7-1.9c0.5-0.4,1.2-0.6,2.2-0.6h7.8v-1.8h-7.8c-1.5,0-2.6,0.3-3.3,1c-0.7,0.7-1,1.7-1,3.1c0,0.9,0.2,1.6,0.5,2.3     c0.4,0.7,0.9,1.2,1.5,1.6v0.1C466.1,299.3,465.5,300.5,465.5,302.4z"/>
		</g>
	</g>
</g>
<g>
	<path d="M167.4,387.9c-0.2,0.7-0.3,1.3-0.4,1.9c-0.2-0.9-0.5-2.1-0.9-3.6l-3.7-12.9H161l-3.2,11.2c-0.7,2.3-1.1,4.1-1.3,5.2   c-0.1-0.3-0.1-0.7-0.2-1c-0.1-0.3-0.2-0.7-0.2-1c-0.1-0.4-0.2-0.7-0.3-1.1c-0.1-0.4-0.2-0.9-0.4-1.3l-3.2-11.9h-1.4l5.1,18.5h1.1   c2.5-8.8,3.8-13.7,4.1-14.6c0.2-1,0.4-1.8,0.6-2.5c0.2,0.7,0.4,1.7,0.8,2.9l4.1,14.3h1.1l5.1-18.5h-1.3   C168.9,382.4,167.6,387.2,167.4,387.9z"/>
	<path d="M181.7,377.8c-1.2,0-2.1,0.2-2.9,0.6c-0.8,0.4-1.4,1-1.9,1.8h-0.1l0.1-1.8v-6.3h-1.2v19.7h1.2v-7.6c0-1.9,0.4-3.2,1.1-4   c0.8-0.8,2-1.2,3.6-1.2c1.2,0,2.1,0.3,2.7,0.9c0.6,0.6,0.9,1.6,0.9,3v8.9h1.2v-9C186.4,379.5,184.9,377.8,181.7,377.8z"/>
	<path d="M196,377.8c-1.8,0-3.3,0.7-4.4,2c-1.1,1.3-1.6,3.1-1.6,5.3c0,2.2,0.6,3.9,1.7,5.2c1.1,1.2,2.7,1.8,4.7,1.8   c0.8,0,1.5-0.1,2.2-0.2c0.7-0.1,1.4-0.4,2.2-0.7v-1.1c-0.9,0.4-1.7,0.6-2.3,0.7c-0.6,0.1-1.3,0.2-2.1,0.2c-1.6,0-2.8-0.5-3.7-1.5   c-0.9-1-1.3-2.4-1.3-4.3h9.9v-1c0-1.9-0.5-3.5-1.4-4.6C198.9,378.4,197.7,377.8,196,377.8z M191.5,384c0.1-1.6,0.6-2.9,1.4-3.8   c0.8-0.9,1.9-1.3,3.2-1.3c1.2,0,2.2,0.5,2.9,1.3c0.7,0.9,1,2.1,1,3.7H191.5z"/>
	<path d="M208.2,378.5c-0.6,0.4-1.2,1.1-1.8,2.1h-0.1l-0.1-2.5h-1.1v13.7h1.3v-7.6c0-1.5,0.4-2.8,1.1-3.8c0.8-1,1.7-1.5,2.9-1.5   c0.6,0,1.2,0.1,1.8,0.2l0.2-1.2c-0.7-0.1-1.3-0.2-1.9-0.2C209.6,377.8,208.8,378.1,208.2,378.5z"/>
	<path d="M220.3,377.8c-1.8,0-3.3,0.7-4.4,2c-1.1,1.3-1.6,3.1-1.6,5.3c0,2.2,0.6,3.9,1.7,5.2c1.1,1.2,2.7,1.8,4.7,1.8   c0.8,0,1.5-0.1,2.2-0.2c0.7-0.1,1.4-0.4,2.2-0.7v-1.1c-0.9,0.4-1.7,0.6-2.3,0.7c-0.6,0.1-1.3,0.2-2.1,0.2c-1.6,0-2.8-0.5-3.7-1.5   c-0.9-1-1.3-2.4-1.3-4.3h9.9v-1c0-1.9-0.5-3.5-1.4-4.6C223.2,378.4,222,377.8,220.3,377.8z M215.7,384c0.1-1.6,0.6-2.9,1.4-3.8   c0.8-0.9,1.9-1.3,3.2-1.3c1.2,0,2.2,0.5,2.9,1.3c0.7,0.9,1,2.1,1,3.7H215.7z"/>
	<polygon points="233.9,374.6 239.9,374.6 239.9,391.9 241.2,391.9 241.2,374.6 247.2,374.6 247.2,373.4 233.9,373.4  "/>
	<path d="M252.7,378.5c-0.6,0.4-1.2,1.1-1.8,2.1h-0.1l-0.1-2.5h-1.1v13.7h1.2v-7.6c0-1.5,0.4-2.8,1.1-3.8c0.8-1,1.7-1.5,2.9-1.5   c0.6,0,1.2,0.1,1.8,0.2l0.2-1.2c-0.7-0.1-1.3-0.2-1.9-0.2C254.2,377.8,253.4,378.1,252.7,378.5z"/>
	<path d="M264.5,377.9c-1.5,0-3,0.4-4.5,1.1l0.5,1.1c1.4-0.7,2.7-1.1,4-1.1c1.2,0,2,0.3,2.6,1c0.5,0.7,0.8,1.7,0.8,3v0.9l-2.6,0.1   c-2.1,0-3.7,0.4-4.9,1.2c-1.1,0.7-1.7,1.8-1.7,3.1c0,1.2,0.4,2.2,1.1,2.9c0.8,0.7,1.8,1,3.1,1c1,0,1.9-0.2,2.6-0.6   c0.7-0.4,1.4-1,2.1-1.9h0.1l0.3,2.2h0.9v-9.1c0-1.7-0.4-2.9-1.1-3.7C267.1,378.3,266,377.9,264.5,377.9z M267.8,386.2   c0,1.5-0.4,2.7-1.3,3.5c-0.8,0.8-2,1.3-3.5,1.3c-1,0-1.7-0.2-2.2-0.7c-0.5-0.5-0.8-1.1-0.8-2c0-1.1,0.4-1.9,1.2-2.4   c0.8-0.5,2.2-0.8,4.1-0.9l2.4-0.1L267.8,386.2L267.8,386.2z"/>
	<path d="M283,377.1c0,1,0,2.1,0.1,3.1H283c-0.6-0.9-1.2-1.5-1.9-1.9c-0.7-0.4-1.6-0.5-2.6-0.5c-1.9,0-3.3,0.6-4.3,1.9   c-1,1.3-1.5,3.1-1.5,5.4c0,2.3,0.5,4,1.5,5.2c1,1.2,2.5,1.8,4.3,1.8c2,0,3.5-0.8,4.5-2.4h0.1l0.3,2.1h0.8v-19.7H283L283,377.1   L283,377.1z M283,385.2c0,2.1-0.4,3.6-1.1,4.5c-0.7,0.9-1.9,1.4-3.4,1.4c-3,0-4.5-1.9-4.5-5.8c0-2,0.4-3.5,1.1-4.6   c0.8-1.1,1.9-1.6,3.4-1.6c1.6,0,2.7,0.5,3.5,1.4c0.7,0.9,1.1,2.5,1.1,4.6V385.2z"/>
	<rect x="288.9" y="378.1" width="1.2" height="13.7"/>
	<path d="M300.9,377.8c-2.3,0-3.9,0.7-4.8,2.2H296l-0.2-1.9h-1.1v13.7h1.3v-7.6c0-1.9,0.4-3.2,1.1-4c0.8-0.8,2-1.2,3.6-1.2   c1.2,0,2.1,0.3,2.7,0.9c0.6,0.6,0.9,1.6,0.9,3v8.9h1.2v-9C305.5,379.5,304,377.8,300.9,377.8z"/>
	<path d="M314.2,377.8c-1.5,0-2.7,0.4-3.5,1.2c-0.9,0.8-1.3,1.9-1.3,3.3c0,0.9,0.2,1.7,0.7,2.4c0.4,0.7,1.1,1.2,1.9,1.5   c-1.2,0.7-1.8,1.5-1.8,2.4c0,0.4,0.1,0.8,0.4,1.1c0.2,0.3,0.6,0.6,1,0.8c-1,0.2-1.8,0.7-2.4,1.3c-0.6,0.6-0.9,1.4-0.9,2.4   c0,1.2,0.5,2.1,1.4,2.8c0.9,0.7,2.3,1,4,1c2.2,0,3.9-0.4,5-1.2c1.2-0.8,1.8-1.9,1.8-3.4c0-1.2-0.4-2.1-1.2-2.7   c-0.8-0.6-1.9-0.9-3.4-0.9h-2.4c-0.8,0-1.3-0.1-1.7-0.3c-0.3-0.2-0.5-0.5-0.5-1c0-0.4,0.1-0.8,0.4-1.1c0.3-0.4,0.6-0.7,1.1-0.9   c0.3,0.1,0.7,0.1,1.3,0.1c1.5,0,2.7-0.4,3.5-1.2c0.9-0.8,1.3-1.9,1.3-3.2c0-1.1-0.4-2.2-1.1-3.1l2.8-0.2v-0.9h-4.4   C315.8,377.9,315.1,377.8,314.2,377.8z M313.4,391.2h2.3c1.3,0,2.2,0.2,2.7,0.6c0.6,0.4,0.8,1,0.8,1.8c0,2.3-1.8,3.5-5.4,3.5   c-2.8,0-4.2-0.9-4.2-2.8C309.6,392.2,310.8,391.2,313.4,391.2z M317.7,382.4c0,1.1-0.3,1.9-0.9,2.5c-0.6,0.6-1.5,0.9-2.6,0.9   c-1.1,0-1.9-0.3-2.6-0.9c-0.6-0.6-1-1.4-1-2.5c0-1.1,0.3-2,0.9-2.6c0.6-0.6,1.5-0.9,2.6-0.9c1.1,0,2,0.3,2.6,0.9   C317.4,380.3,317.7,381.2,317.7,382.4z"/>
	<path d="M339.2,389.6L339.2,389.6l-6.6-16.3h-2v18.5h1.2V378c0-1.1,0-2.2-0.1-3.2h0.1l6.9,17.1h0.8l6.9-17h0.1   c-0.1,1-0.1,2.1-0.1,3v14h1.3v-18.5h-1.9L339.2,389.6z"/>
	<path d="M357.4,377.9c-1.5,0-3,0.4-4.5,1.1l0.5,1.1c1.4-0.7,2.7-1.1,4-1.1c1.2,0,2,0.3,2.6,1c0.5,0.7,0.8,1.7,0.8,3v0.9l-2.6,0.1   c-2.1,0-3.7,0.4-4.8,1.2s-1.7,1.8-1.7,3.1c0,1.2,0.4,2.2,1.1,2.9c0.8,0.7,1.8,1,3.1,1c1,0,1.9-0.2,2.6-0.6c0.7-0.4,1.4-1,2.1-1.9   h0.1l0.3,2.2h0.9v-9.1c0-1.7-0.4-2.9-1.1-3.7C360,378.3,358.9,377.9,357.4,377.9z M360.6,386.2c0,1.5-0.4,2.7-1.3,3.5   c-0.8,0.8-2,1.3-3.5,1.3c-1,0-1.7-0.2-2.2-0.7c-0.5-0.5-0.8-1.1-0.8-2c0-1.1,0.4-1.9,1.2-2.4c0.8-0.5,2.2-0.8,4.1-0.9l2.4-0.1   L360.6,386.2L360.6,386.2z"/>
	<polygon points="376.1,378.1 374.6,378.1 367.6,385.8 367.5,385.8 367.6,382 367.6,372.2 366.3,372.2 366.3,391.9 367.6,391.9    367.6,387 369.8,384.9 375,391.9 376.5,391.9 370.7,384  "/>
	<path d="M384,377.8c-1.8,0-3.3,0.7-4.4,2c-1.1,1.3-1.6,3.1-1.6,5.3c0,2.2,0.6,3.9,1.7,5.2c1.1,1.2,2.7,1.8,4.7,1.8   c0.8,0,1.5-0.1,2.2-0.2c0.7-0.1,1.4-0.4,2.1-0.7v-1.1c-0.9,0.4-1.7,0.6-2.3,0.7c-0.6,0.1-1.3,0.2-2.1,0.2c-1.6,0-2.8-0.5-3.7-1.5   c-0.9-1-1.3-2.4-1.3-4.3h9.9v-1c0-1.9-0.5-3.5-1.4-4.6C386.9,378.4,385.7,377.8,384,377.8z M379.4,384c0.1-1.6,0.6-2.9,1.4-3.8   c0.8-0.9,1.9-1.3,3.2-1.3c1.2,0,2.2,0.5,2.9,1.3c0.7,0.9,1,2.1,1,3.7H379.4z"/>
	<path d="M399.9,385.5c-0.6-0.4-1.5-0.8-2.7-1.2c-1.5-0.5-2.5-1-3-1.4c-0.5-0.4-0.8-1-0.8-1.7c0-0.7,0.3-1.2,1-1.5   c0.7-0.4,1.5-0.6,2.7-0.6c1.2,0,2.4,0.3,3.8,0.8l0.5-1.1c-1.3-0.6-2.7-0.8-4.2-0.8c-1.6,0-2.8,0.3-3.6,0.9   c-0.9,0.6-1.3,1.4-1.3,2.4c0,0.7,0.1,1.2,0.4,1.6c0.3,0.5,0.7,0.9,1.3,1.2c0.6,0.4,1.5,0.8,2.9,1.3c1.3,0.5,2.2,0.9,2.8,1.4   c0.6,0.5,0.8,1.1,0.8,1.7c0,0.8-0.4,1.4-1.1,1.8c-0.7,0.5-1.7,0.7-3.1,0.7c-1.5,0-3-0.3-4.4-1v1.4c1.1,0.6,2.5,0.8,4.4,0.8   c1.7,0,3-0.3,4-1c0.9-0.7,1.4-1.6,1.4-2.8c0-0.6-0.1-1.1-0.4-1.6C400.9,386.2,400.5,385.8,399.9,385.5z"/>
	<path d="M420.3,383.3c-0.7-0.5-1.8-0.9-3.2-1.4c-1.4-0.5-2.3-0.9-2.9-1.3c-0.6-0.3-1-0.7-1.2-1.2c-0.2-0.4-0.4-1-0.4-1.7   c0-1.1,0.4-1.9,1.2-2.6c0.8-0.6,1.9-0.9,3.3-0.9c1.4,0,2.9,0.3,4.4,1l0.5-1.1c-1.5-0.7-3.2-1-4.9-1c-1.7,0-3.1,0.4-4.2,1.3   c-1.1,0.9-1.6,2-1.6,3.4c0,1.3,0.4,2.3,1.1,3c0.7,0.8,2,1.5,3.9,2.1c1.3,0.4,2.3,0.8,2.9,1.2c0.7,0.4,1.1,0.8,1.4,1.3   c0.3,0.5,0.4,1,0.4,1.7c0,1.1-0.4,2-1.3,2.7c-0.9,0.7-2.1,1-3.6,1c-2.1,0-3.8-0.3-5.1-0.8v1.3c1.2,0.5,2.9,0.7,5.2,0.7   c1.9,0,3.4-0.4,4.5-1.4c1.1-0.9,1.7-2.1,1.7-3.7c0-0.8-0.2-1.6-0.5-2.2C421.5,384.3,421,383.8,420.3,383.3z"/>
	<path d="M431.1,377.8c-1.8,0-3.3,0.7-4.4,2c-1.1,1.3-1.6,3.1-1.6,5.3c0,2.2,0.6,3.9,1.7,5.2c1.1,1.2,2.7,1.8,4.7,1.8   c0.8,0,1.5-0.1,2.2-0.2c0.7-0.1,1.4-0.4,2.1-0.7v-1.1c-0.9,0.4-1.7,0.6-2.3,0.7c-0.6,0.1-1.3,0.2-2.1,0.2c-1.6,0-2.9-0.5-3.7-1.5   c-0.9-1-1.3-2.4-1.3-4.3h9.9v-1c0-1.9-0.5-3.5-1.4-4.6C434,378.4,432.8,377.8,431.1,377.8z M426.6,384c0.1-1.6,0.6-2.9,1.4-3.8   c0.8-0.9,1.9-1.3,3.2-1.3c1.2,0,2.2,0.5,2.9,1.3c0.7,0.9,1,2.1,1,3.7H426.6z"/>
	<path d="M446.3,377.8c-2.3,0-3.9,0.7-4.8,2.2h-0.1l-0.2-1.9h-1.1v13.7h1.3v-7.6c0-1.9,0.4-3.2,1.1-4c0.8-0.8,2-1.2,3.6-1.2   c1.2,0,2.1,0.3,2.7,0.9c0.6,0.6,0.9,1.6,0.9,3v8.9h1.2v-9C451,379.5,449.4,377.8,446.3,377.8z"/>
	<path d="M462.3,385.5c-0.6-0.4-1.5-0.8-2.7-1.2c-1.5-0.5-2.5-1-3-1.4c-0.5-0.4-0.8-1-0.8-1.7c0-0.7,0.3-1.2,1-1.5   c0.7-0.4,1.6-0.6,2.7-0.6c1.2,0,2.4,0.3,3.8,0.8l0.5-1.1c-1.3-0.6-2.7-0.8-4.2-0.8c-1.6,0-2.8,0.3-3.6,0.9   c-0.9,0.6-1.3,1.4-1.3,2.4c0,0.7,0.1,1.2,0.4,1.6c0.3,0.5,0.7,0.9,1.3,1.2c0.6,0.4,1.5,0.8,2.9,1.3c1.3,0.5,2.2,0.9,2.8,1.4   c0.6,0.5,0.8,1.1,0.8,1.7c0,0.8-0.4,1.4-1.1,1.8c-0.7,0.5-1.7,0.7-3.1,0.7c-1.5,0-3-0.3-4.4-1v1.4c1.1,0.6,2.5,0.8,4.4,0.8   c1.7,0,3-0.3,4-1c0.9-0.7,1.4-1.6,1.4-2.8c0-0.6-0.1-1.1-0.4-1.6C463.3,386.2,462.8,385.8,462.3,385.5z"/>
	<path d="M472.7,377.8c-1.8,0-3.3,0.7-4.4,2c-1.1,1.3-1.6,3.1-1.6,5.3c0,2.2,0.6,3.9,1.7,5.2c1.1,1.2,2.7,1.8,4.7,1.8   c0.8,0,1.5-0.1,2.2-0.2c0.7-0.1,1.4-0.4,2.1-0.7v-1.1c-0.9,0.4-1.7,0.6-2.3,0.7c-0.6,0.1-1.3,0.2-2.1,0.2c-1.6,0-2.8-0.5-3.7-1.5   c-0.9-1-1.3-2.4-1.3-4.3h9.9v-1c0-1.9-0.5-3.5-1.4-4.6C475.6,378.4,474.3,377.8,472.7,377.8z M468.1,384c0.1-1.6,0.6-2.9,1.4-3.8   c0.8-0.9,1.9-1.3,3.2-1.3c1.2,0,2.2,0.5,2.9,1.3c0.7,0.9,1,2.1,1,3.7H468.1z"/>
	<circle cx="289.5" cy="373.3" r="1.4"/>
</g>
<g>
	<path d="M476.2,250.9h-1.1v-8.2h-2.8v-1h6.7v1h-2.8L476.2,250.9L476.2,250.9z M483.8,250.9l-2.8-7.8h-0.1l0.1,2.6v5.2h-1v-9.2h1.6   l2.8,7.7l2.9-7.7h1.6v9.2h-1.1v-5.1l0.1-2.6h-0.1l-2.9,7.7L483.8,250.9L483.8,250.9z"/>
</g>
</svg>